<mxfile host="app.diagrams.net" agent="Mozilla/5.0 (Windows NT 10.0; Win64; x64) AppleWebKit/537.36 (KHTML, like Gecko) Chrome/136.0.0.0 Safari/537.36" version="27.0.9">
  <diagram name="Page-1" id="W58zgf_DCBsDDWq-Ni62">
    <mxGraphModel dx="1389" dy="749" grid="1" gridSize="10" guides="1" tooltips="1" connect="1" arrows="1" fold="1" page="1" pageScale="1" pageWidth="827" pageHeight="1169" math="0" shadow="0">
      <root>
        <mxCell id="0" />
        <mxCell id="1" parent="0" />
        <mxCell id="hSLG_JLPPMPA3X-6i2g4-10" style="edgeStyle=orthogonalEdgeStyle;rounded=0;orthogonalLoop=1;jettySize=auto;html=1;exitX=0.5;exitY=1;exitDx=0;exitDy=0;entryX=0.5;entryY=0;entryDx=0;entryDy=0;" edge="1" parent="1" source="hSLG_JLPPMPA3X-6i2g4-1" target="hSLG_JLPPMPA3X-6i2g4-2">
          <mxGeometry relative="1" as="geometry" />
        </mxCell>
        <mxCell id="hSLG_JLPPMPA3X-6i2g4-1" value="Start" style="ellipse;whiteSpace=wrap;html=1;" vertex="1" parent="1">
          <mxGeometry x="332.5" y="10" width="90" height="50" as="geometry" />
        </mxCell>
        <mxCell id="hSLG_JLPPMPA3X-6i2g4-11" style="edgeStyle=orthogonalEdgeStyle;rounded=0;orthogonalLoop=1;jettySize=auto;html=1;exitX=0.5;exitY=1;exitDx=0;exitDy=0;entryX=0.5;entryY=0;entryDx=0;entryDy=0;" edge="1" parent="1" source="hSLG_JLPPMPA3X-6i2g4-2" target="hSLG_JLPPMPA3X-6i2g4-3">
          <mxGeometry relative="1" as="geometry" />
        </mxCell>
        <mxCell id="hSLG_JLPPMPA3X-6i2g4-2" value="Setup SQLite Database" style="rounded=0;whiteSpace=wrap;html=1;" vertex="1" parent="1">
          <mxGeometry x="330" y="80" width="95" height="50" as="geometry" />
        </mxCell>
        <mxCell id="hSLG_JLPPMPA3X-6i2g4-12" style="edgeStyle=orthogonalEdgeStyle;rounded=0;orthogonalLoop=1;jettySize=auto;html=1;exitX=0.5;exitY=1;exitDx=0;exitDy=0;entryX=0.5;entryY=0;entryDx=0;entryDy=0;" edge="1" parent="1" source="hSLG_JLPPMPA3X-6i2g4-3" target="hSLG_JLPPMPA3X-6i2g4-4">
          <mxGeometry relative="1" as="geometry" />
        </mxCell>
        <mxCell id="hSLG_JLPPMPA3X-6i2g4-3" value="Insert sample data" style="rounded=0;whiteSpace=wrap;html=1;" vertex="1" parent="1">
          <mxGeometry x="330" y="150" width="97.5" height="50" as="geometry" />
        </mxCell>
        <mxCell id="hSLG_JLPPMPA3X-6i2g4-13" style="edgeStyle=orthogonalEdgeStyle;rounded=0;orthogonalLoop=1;jettySize=auto;html=1;exitX=0.5;exitY=1;exitDx=0;exitDy=0;entryX=0.5;entryY=0;entryDx=0;entryDy=0;" edge="1" parent="1" source="hSLG_JLPPMPA3X-6i2g4-4" target="hSLG_JLPPMPA3X-6i2g4-5">
          <mxGeometry relative="1" as="geometry" />
        </mxCell>
        <mxCell id="hSLG_JLPPMPA3X-6i2g4-4" value="Setup ChromaDB" style="rounded=0;whiteSpace=wrap;html=1;" vertex="1" parent="1">
          <mxGeometry x="330" y="220" width="95" height="50" as="geometry" />
        </mxCell>
        <mxCell id="hSLG_JLPPMPA3X-6i2g4-14" style="edgeStyle=orthogonalEdgeStyle;rounded=0;orthogonalLoop=1;jettySize=auto;html=1;exitX=0.5;exitY=1;exitDx=0;exitDy=0;entryX=0.5;entryY=0;entryDx=0;entryDy=0;" edge="1" parent="1" source="hSLG_JLPPMPA3X-6i2g4-5" target="hSLG_JLPPMPA3X-6i2g4-6">
          <mxGeometry relative="1" as="geometry" />
        </mxCell>
        <mxCell id="hSLG_JLPPMPA3X-6i2g4-5" value="Input PDF file path" style="shape=parallelogram;perimeter=parallelogramPerimeter;whiteSpace=wrap;html=1;fixedSize=1;" vertex="1" parent="1">
          <mxGeometry x="309.38" y="290" width="131.25" height="50" as="geometry" />
        </mxCell>
        <mxCell id="hSLG_JLPPMPA3X-6i2g4-15" style="edgeStyle=orthogonalEdgeStyle;rounded=0;orthogonalLoop=1;jettySize=auto;html=1;exitX=0.5;exitY=1;exitDx=0;exitDy=0;entryX=0.5;entryY=0;entryDx=0;entryDy=0;" edge="1" parent="1" source="hSLG_JLPPMPA3X-6i2g4-6" target="hSLG_JLPPMPA3X-6i2g4-7">
          <mxGeometry relative="1" as="geometry" />
        </mxCell>
        <mxCell id="hSLG_JLPPMPA3X-6i2g4-6" value="Extract text from PDF" style="rounded=0;whiteSpace=wrap;html=1;" vertex="1" parent="1">
          <mxGeometry x="324.99" y="360" width="105.01" height="50" as="geometry" />
        </mxCell>
        <mxCell id="hSLG_JLPPMPA3X-6i2g4-16" style="edgeStyle=orthogonalEdgeStyle;rounded=0;orthogonalLoop=1;jettySize=auto;html=1;exitX=0.5;exitY=1;exitDx=0;exitDy=0;entryX=0.5;entryY=0;entryDx=0;entryDy=0;" edge="1" parent="1" source="hSLG_JLPPMPA3X-6i2g4-7">
          <mxGeometry relative="1" as="geometry">
            <mxPoint x="370.3150000000003" y="510" as="targetPoint" />
          </mxGeometry>
        </mxCell>
        <mxCell id="hSLG_JLPPMPA3X-6i2g4-7" value="Ask user question" style="shape=parallelogram;perimeter=parallelogramPerimeter;whiteSpace=wrap;html=1;fixedSize=1;" vertex="1" parent="1">
          <mxGeometry x="315.01" y="430" width="120" height="60" as="geometry" />
        </mxCell>
        <mxCell id="hSLG_JLPPMPA3X-6i2g4-8" style="edgeStyle=orthogonalEdgeStyle;rounded=0;orthogonalLoop=1;jettySize=auto;html=1;exitX=1;exitY=0.75;exitDx=0;exitDy=0;entryX=1;entryY=0.25;entryDx=0;entryDy=0;" edge="1" parent="1" source="hSLG_JLPPMPA3X-6i2g4-2" target="hSLG_JLPPMPA3X-6i2g4-2">
          <mxGeometry relative="1" as="geometry" />
        </mxCell>
        <mxCell id="hSLG_JLPPMPA3X-6i2g4-20" style="edgeStyle=orthogonalEdgeStyle;rounded=0;orthogonalLoop=1;jettySize=auto;html=1;exitX=1;exitY=0.5;exitDx=0;exitDy=0;entryX=0.5;entryY=0;entryDx=0;entryDy=0;" edge="1" parent="1" source="hSLG_JLPPMPA3X-6i2g4-17" target="hSLG_JLPPMPA3X-6i2g4-19">
          <mxGeometry relative="1" as="geometry" />
        </mxCell>
        <mxCell id="hSLG_JLPPMPA3X-6i2g4-21" style="edgeStyle=orthogonalEdgeStyle;rounded=0;orthogonalLoop=1;jettySize=auto;html=1;exitX=0;exitY=0.5;exitDx=0;exitDy=0;entryX=0.5;entryY=0;entryDx=0;entryDy=0;" edge="1" parent="1" source="hSLG_JLPPMPA3X-6i2g4-17" target="hSLG_JLPPMPA3X-6i2g4-18">
          <mxGeometry relative="1" as="geometry" />
        </mxCell>
        <mxCell id="hSLG_JLPPMPA3X-6i2g4-17" value="Is question = &quot;exit&quot;?" style="rhombus;whiteSpace=wrap;html=1;" vertex="1" parent="1">
          <mxGeometry x="322.5" y="510" width="100" height="110" as="geometry" />
        </mxCell>
        <mxCell id="hSLG_JLPPMPA3X-6i2g4-18" value="Exit" style="rounded=0;whiteSpace=wrap;html=1;" vertex="1" parent="1">
          <mxGeometry x="180" y="600" width="120" height="50" as="geometry" />
        </mxCell>
        <mxCell id="hSLG_JLPPMPA3X-6i2g4-19" value="&lt;div&gt;Insert question into SQLite DB and display answers&lt;/div&gt;" style="rounded=0;whiteSpace=wrap;html=1;align=center;" vertex="1" parent="1">
          <mxGeometry x="440.63" y="600" width="120" height="60" as="geometry" />
        </mxCell>
        <mxCell id="hSLG_JLPPMPA3X-6i2g4-22" value="Yes" style="text;html=1;align=center;verticalAlign=middle;resizable=0;points=[];autosize=1;strokeColor=none;fillColor=none;" vertex="1" parent="1">
          <mxGeometry x="250" y="528" width="40" height="30" as="geometry" />
        </mxCell>
        <mxCell id="hSLG_JLPPMPA3X-6i2g4-23" value="No" style="text;html=1;align=center;verticalAlign=middle;resizable=0;points=[];autosize=1;strokeColor=none;fillColor=none;" vertex="1" parent="1">
          <mxGeometry x="450" y="528" width="40" height="30" as="geometry" />
        </mxCell>
      </root>
    </mxGraphModel>
  </diagram>
</mxfile>
